<svg width="140" height="140" viewBox="0 0 140 140" fill="none" xmlns="http://www.w3.org/2000/svg">
<path d="M112 0H28C12.536 0 0 12.536 0 28V112C0 127.464 12.536 140 28 140H112C127.464 140 140 127.464 140 112V28C140 12.536 127.464 0 112 0Z" fill="#0093ED"/>
<path d="M39 38V101.099H52.5211L53.693 95.8704C56.938 99.7465 61.4451 102 67.1239 102C79.4732 102 89.9296 91.093 89.9296 77.3916C89.9296 63.6901 79.7437 53.3239 67.6648 53.3239C62.6169 53.3239 58.4704 55.2169 55.2254 58.3718V38H39ZM54.7746 77.662C54.7746 72.4338 58.7408 68.1972 64.2394 68.1972C69.738 68.1972 73.7042 72.4338 73.7042 77.662C73.7042 82.8901 69.738 87.1268 64.2394 87.1268C58.7408 87.1268 54.7746 82.8901 54.7746 77.662Z" fill="white"/>
<path d="M105.915 101.831C111.414 101.831 115.831 97.4141 115.831 91.9155C115.831 86.4169 111.414 82 105.915 82C100.417 82 96 86.4169 96 91.9155C96 97.4141 100.417 101.831 105.915 101.831Z" fill="white"/>
</svg>
