<svg width="18" height="22" viewBox="0 0 18 22" fill="none" xmlns="http://www.w3.org/2000/svg">
<path fill-rule="evenodd" clip-rule="evenodd" d="M3 1C2.17157 1 1.5 1.67157 1.5 2.5V19.5C1.5 20.3284 2.17157 21 3 21H15C15.8284 21 16.5 20.3284 16.5 19.5V9H11C9.61929 9 8.5 7.88071 8.5 6.5V1H3ZM9.5 1.70711L15.7929 8H11C10.1716 8 9.5 7.32843 9.5 6.5V1.70711ZM0.5 2.5C0.5 1.11929 1.61929 0 3 0H9C9.13261 0 9.25979 0.0526784 9.35355 0.146447L17.3536 8.14645C17.4473 8.24021 17.5 8.36739 17.5 8.5V19.5C17.5 20.8807 16.3807 22 15 22H3C1.61929 22 0.5 20.8807 0.5 19.5V2.5Z" fill="#0093ED"/>
<path d="M4.5 14.5C4.5 14.2239 4.72386 14 5 14H10C10.2761 14 10.5 14.2239 10.5 14.5C10.5 14.7761 10.2761 15 10 15H5C4.72386 15 4.5 14.7761 4.5 14.5Z" fill="#0093ED"/>
<path d="M4.5 17.5C4.5 17.2239 4.72386 17 5 17H13C13.2761 17 13.5 17.2239 13.5 17.5C13.5 17.7761 13.2761 18 13 18H5C4.72386 18 4.5 17.7761 4.5 17.5Z" fill="#0093ED"/>
</svg>
