<svg width="21" height="17" viewBox="0 0 21 17" fill="none" xmlns="http://www.w3.org/2000/svg">
<path fill-rule="evenodd" clip-rule="evenodd" d="M3.5 3C3.5 1.61929 4.61929 0.5 6 0.5H9.42848C10.0025 0.5 10.5262 0.827608 10.7773 1.3438L11.5273 2.8854C11.611 3.05746 11.7856 3.16667 11.9769 3.16667H18C19.3807 3.16667 20.5 4.28595 20.5 5.66667V11C20.5 12.3807 19.3807 13.5 18 13.5H17.5V14C17.5 15.3807 16.3807 16.5 15 16.5H3C1.61929 16.5 0.5 15.3807 0.5 14V6C0.5 4.61929 1.61929 3.5 3 3.5H3.5V3ZM3 4.5C2.17157 4.5 1.5 5.17157 1.5 6V14C1.5 14.8284 2.17157 15.5 3 15.5H15C15.8284 15.5 16.5 14.8284 16.5 14V8.66667C16.5 7.83824 15.8284 7.16667 15 7.16667H8.97692C8.40289 7.16667 7.87919 6.83906 7.62807 6.32287L6.8781 4.78127C6.7944 4.6092 6.61983 4.5 6.42848 4.5H3ZM17.5 12.5V8.66667C17.5 7.28596 16.3807 6.16667 15 6.16667H8.97692C8.78558 6.16667 8.61101 6.05746 8.5273 5.8854L7.77734 4.3438C7.52622 3.82761 7.00252 3.5 6.42848 3.5H4.5V3C4.5 2.17157 5.17157 1.5 6 1.5H9.42848C9.61983 1.5 9.7944 1.6092 9.8781 1.78127L10.6281 3.32287C10.8792 3.83906 11.4029 4.16667 11.9769 4.16667H18C18.8284 4.16667 19.5 4.83824 19.5 5.66667V11C19.5 11.8284 18.8284 12.5 18 12.5H17.5Z" fill="#0093ED"/>
<path d="M14 13C14 13.5523 13.5523 14 13 14C12.4477 14 12 13.5523 12 13C12 12.4477 12.4477 12 13 12C13.5523 12 14 12.4477 14 13Z" fill="#0093ED"/>
<path d="M11 13C11 13.5523 10.5523 14 10 14C9.44771 14 9 13.5523 9 13C9 12.4477 9.44771 12 10 12C10.5523 12 11 12.4477 11 13Z" fill="#0093ED"/>
</svg>
