<svg width="18" height="22" viewBox="0 0 18 22" fill="none" xmlns="http://www.w3.org/2000/svg">
<path fill-rule="evenodd" clip-rule="evenodd" d="M9 1.00186C5.22897 1.00186 1.5 3.93161 1.5 8.29314C1.5 10.3267 2.38453 12.3165 3.73973 14.3269C4.89213 16.0365 6.35095 17.7141 7.82884 19.4136C8.09091 19.715 8.35358 20.017 8.61524 20.3201C8.81953 20.5567 9.1874 20.5574 9.392 20.3229C9.59044 20.0955 9.78932 19.8684 9.98794 19.6417C11.5385 17.8715 13.0738 16.1189 14.2717 14.3327C15.6221 12.3191 16.5 10.3243 16.5 8.29314C16.5 3.93915 12.7707 1.00186 9 1.00186ZM0.5 8.29314C0.5 3.28828 4.77103 0 9 0C13.2293 0 17.5 3.29647 17.5 8.29314C17.5 10.6137 16.4988 12.8083 15.1018 14.8914C13.8652 16.7353 12.284 18.5399 10.7395 20.3026C10.5404 20.5299 10.3419 20.7564 10.1449 20.9823C9.53954 21.676 8.45976 21.6714 7.85895 20.9755C7.60254 20.6786 7.3433 20.3805 7.08313 20.0814C5.60702 18.3844 4.10095 16.6529 2.91101 14.8876C1.50978 12.8089 0.5 10.6183 0.5 8.29314ZM9.00046 5.79638C7.50138 5.79638 6.28613 7.01388 6.28613 8.51575C6.28613 10.0176 7.50138 11.2351 9.00046 11.2351C10.4995 11.2351 11.7148 10.0176 11.7148 8.51575C11.7148 7.01388 10.4995 5.79638 9.00046 5.79638ZM5.28613 8.51575C5.28613 6.46057 6.94909 4.79453 9.00046 4.79453C11.0518 4.79453 12.7148 6.46057 12.7148 8.51575C12.7148 10.5709 11.0518 12.237 9.00046 12.237C6.94909 12.237 5.28613 10.5709 5.28613 8.51575Z" fill="#0093ED"/>
</svg>
