<svg width="22" height="24" viewBox="0 0 22 24" fill="none" xmlns="http://www.w3.org/2000/svg">
<path fill-rule="evenodd" clip-rule="evenodd" d="M21.3143 0.611171C21.4318 0.706099 21.5 0.849008 21.5 1V6.49037C21.5001 6.49714 21.5001 6.50389 21.5 6.51063V16C21.5 17.933 19.933 19.5 18 19.5C16.067 19.5 14.5 17.933 14.5 16C14.5 14.067 16.067 12.5 18 12.5C18.9793 12.5 19.8647 12.9022 20.5 13.5505V7.1185L7.5 9.90421V20C7.5 21.933 5.933 23.5 4 23.5C2.067 23.5 0.5 21.933 0.5 20C0.5 18.067 2.067 16.5 4 16.5C4.97934 16.5 5.86474 16.9022 6.5 17.5505V9.50965C6.49986 9.50287 6.49986 9.49611 6.5 9.48938V4C6.5 3.76424 6.6647 3.5605 6.89524 3.5111L20.8952 0.511103C21.0429 0.479465 21.1969 0.516244 21.3143 0.611171ZM7.5 8.88151L20.5 6.0958V1.6185L7.5 4.40421V8.88151ZM6.5 20C6.5 18.6193 5.38071 17.5 4 17.5C2.61929 17.5 1.5 18.6193 1.5 20C1.5 21.3807 2.61929 22.5 4 22.5C5.38071 22.5 6.5 21.3807 6.5 20ZM20.5 16C20.5 14.6193 19.3807 13.5 18 13.5C16.6193 13.5 15.5 14.6193 15.5 16C15.5 17.3807 16.6193 18.5 18 18.5C19.3807 18.5 20.5 17.3807 20.5 16Z" fill="#0093ED"/>
</svg>
