<svg width="24" height="20" viewBox="0 0 24 20" fill="none" xmlns="http://www.w3.org/2000/svg">
<path fill-rule="evenodd" clip-rule="evenodd" d="M8.99997 1.5C7.61926 1.5 6.49997 2.61929 6.49997 4C6.49997 5.38071 7.61926 6.5 8.99997 6.5C10.3807 6.5 11.5 5.38071 11.5 4C11.5 2.61929 10.3807 1.5 8.99997 1.5ZM5.49997 4C5.49997 2.067 7.06698 0.5 8.99997 0.5C10.933 0.5 12.5 2.067 12.5 4C12.5 5.933 10.933 7.5 8.99997 7.5C7.06698 7.5 5.49997 5.933 5.49997 4ZM16.6007 8.4146C16.4183 8.13084 16.013 8.10544 15.7965 8.36419L10.6692 14.4946C10.5799 14.6014 10.4502 14.6661 10.3112 14.6732C10.1722 14.6803 10.0365 14.6291 9.93684 14.532L6.5133 11.1979C6.28919 10.9796 5.92195 11.0184 5.74842 11.2787L1.45246 17.7227C1.23095 18.0549 1.46914 18.5 1.86849 18.5H22.1683C22.5639 18.5 22.8028 18.0624 22.5889 17.7296L16.6007 8.4146ZM15.0295 7.72264C15.6787 6.94636 16.8946 7.02258 17.4418 7.87384L23.4301 17.1889C24.0718 18.1871 23.3551 19.5 22.1683 19.5H1.86849C0.670446 19.5 -0.0441412 18.1648 0.620413 17.1679L4.91637 10.724C5.43695 9.94314 6.53866 9.82669 7.21099 10.4815L10.2482 13.4394L15.0295 7.72264Z" fill="#0093ED"/>
</svg>
