<svg width="24" height="24" viewBox="0 0 24 24" fill="none" xmlns="http://www.w3.org/2000/svg">
<path fill-rule="evenodd" clip-rule="evenodd" d="M5.77162 17.0396C5.17249 17.0396 4.66337 17.2495 4.24403 17.6695C3.82486 18.0899 3.61511 18.5997 3.61511 19.1999C3.61511 19.8 3.8247 20.3099 4.24403 20.7302C4.66352 21.1502 5.17265 21.3602 5.77162 21.3602C6.36068 21.3602 6.86724 21.1502 7.29161 20.7302C7.71582 20.3104 7.92792 19.8 7.92792 19.1999C7.92792 18.5997 7.71587 18.0902 7.29161 17.6695C6.86719 17.2499 6.36068 17.0396 5.77162 17.0396Z" fill="#0093ED"/>
<path fill-rule="evenodd" clip-rule="evenodd" d="M5.29194 12.4797C5.29194 11.8198 5.05744 11.2549 4.58817 10.7845C4.11896 10.3145 3.55481 10.0796 2.89594 10.0796C2.23702 10.0796 1.67298 10.3146 1.20371 10.7845C0.734554 11.2546 0.5 11.8196 0.5 12.4797C0.5 13.1396 0.734501 13.7043 1.20371 14.1745C1.67298 14.6446 2.23702 14.8796 2.89594 14.8796C3.55481 14.8796 4.11896 14.6446 4.58817 14.1745C5.05744 13.7046 5.29194 13.1396 5.29194 12.4797Z" fill="#0093ED"/>
<path fill-rule="evenodd" clip-rule="evenodd" d="M19.1888 6.95976C19.518 6.95976 19.8005 6.84208 20.0348 6.60719C20.2694 6.37208 20.3869 6.08949 20.3869 5.75956C20.3869 5.42947 20.2694 5.14709 20.0348 4.91214C19.8003 4.67704 19.518 4.55957 19.1888 4.55957C18.8593 4.55957 18.5771 4.67725 18.3425 4.91214C18.1081 5.14714 17.9907 5.42947 17.9907 5.75956C17.9907 6.08965 18.1081 6.37208 18.3425 6.60719C18.5771 6.84229 18.8593 6.95976 19.1888 6.95976Z" fill="#0093ED"/>
<path fill-rule="evenodd" clip-rule="evenodd" d="M5.77101 3.11963C5.04212 3.11963 4.4207 3.37716 3.90654 3.89208C3.39233 4.40699 3.13538 5.02949 3.13538 5.75944C3.13538 6.48964 3.39233 7.11189 3.90654 7.62701C4.42086 8.14208 5.04228 8.39956 5.77101 8.39956C6.49975 8.39956 7.12122 8.14192 7.63528 7.62701C8.14933 7.11189 8.40644 6.48949 8.40644 5.75944C8.40644 5.02949 8.14933 4.40699 7.63528 3.89208C7.12122 3.37716 6.49975 3.11963 5.77101 3.11963Z" fill="#0093ED"/>
<path fill-rule="evenodd" clip-rule="evenodd" d="M23.0805 11.4594C22.801 11.1794 22.4616 11.0396 22.0624 11.0396C21.6629 11.0396 21.3235 11.1794 21.044 11.4594C20.7647 11.7394 20.6251 12.0795 20.6251 12.4797C20.6251 12.8795 20.7647 13.2201 21.044 13.4995C21.3236 13.7796 21.6629 13.9195 22.0624 13.9195C22.4616 13.9195 22.8012 13.7796 23.0805 13.4995C23.3602 13.2198 23.4996 12.8795 23.4996 12.4797C23.4996 12.0797 23.3604 11.7396 23.0805 11.4594Z" fill="#0093ED"/>
<path fill-rule="evenodd" clip-rule="evenodd" d="M19.1883 17.5195C18.7288 17.5195 18.3345 17.6844 18.005 18.0145C17.6758 18.3442 17.511 18.7394 17.511 19.1997C17.511 19.6596 17.6758 20.0547 18.005 20.3849C18.3345 20.7149 18.7289 20.8796 19.1883 20.8796C19.6475 20.8796 20.0418 20.7146 20.3713 20.3849C20.7009 20.0548 20.8655 19.6598 20.8655 19.1997C20.8655 18.7394 20.7009 18.3446 20.3713 18.0145C20.0418 17.6843 19.6475 17.5195 19.1883 17.5195Z" fill="#0093ED"/>
<path fill-rule="evenodd" clip-rule="evenodd" d="M12.4795 20.1597C11.9504 20.1597 11.4986 20.3475 11.124 20.7226C10.7497 21.0977 10.5625 21.5499 10.5625 22.08C10.5625 22.61 10.7495 23.0624 11.124 23.4374C11.4986 23.8124 11.9502 24.0001 12.4795 24.0001C13.0086 24.0001 13.4602 23.8124 13.8347 23.4374C14.2091 23.0624 14.3963 22.61 14.3963 22.08C14.3963 21.5499 14.2091 21.0977 13.8347 20.7226C13.4602 20.3475 13.0086 20.1597 12.4795 20.1597Z" fill="#0093ED"/>
<path fill-rule="evenodd" clip-rule="evenodd" d="M12.4803 0C11.6817 0 11.0025 0.279863 10.4434 0.839851C9.88448 1.39989 9.60498 2.08003 9.60498 2.87995C9.60498 3.67993 9.88438 4.35975 10.4434 4.91985C11.0025 5.47973 11.6816 5.75975 12.4803 5.75975C13.2792 5.75975 13.9579 5.47989 14.5168 4.91985C15.0757 4.36001 15.3552 3.67993 15.3552 2.87995C15.3552 2.08008 15.0757 1.4001 14.5168 0.839851C13.9579 0.28002 13.2792 0 12.4803 0Z" fill="#0093ED"/>
</svg>
