<svg width="32" height="32" viewBox="0 0 32 32" fill="none" xmlns="http://www.w3.org/2000/svg">
<path d="M28.9393 31.0607C29.5251 31.6464 30.4749 31.6464 31.0607 31.0607C31.6464 30.4749 31.6464 29.5251 31.0607 28.9393L28.9393 31.0607ZM24.5 14C24.5 19.799 19.799 24.5 14 24.5V27.5C21.4558 27.5 27.5 21.4558 27.5 14H24.5ZM14 24.5C8.20101 24.5 3.5 19.799 3.5 14H0.5C0.5 21.4558 6.54416 27.5 14 27.5V24.5ZM3.5 14C3.5 8.20101 8.20101 3.5 14 3.5V0.5C6.54416 0.5 0.5 6.54416 0.5 14H3.5ZM14 3.5C19.799 3.5 24.5 8.20101 24.5 14H27.5C27.5 6.54416 21.4558 0.5 14 0.5V3.5ZM21.4246 23.5459L28.9393 31.0607L31.0607 28.9393L23.5459 21.4246L21.4246 23.5459Z" fill="#0093ED"/>
</svg>
