<svg width="21" height="21" viewBox="0 0 21 21" fill="none" xmlns="http://www.w3.org/2000/svg">
<path fill-rule="evenodd" clip-rule="evenodd" d="M3.07932 2.16845C2.30807 2.20589 1.69125 2.82271 1.65381 3.59396L1.39192 8.98892C1.37141 9.41152 1.53032 9.82314 1.8295 10.1223L10.7883 19.0812C11.3741 19.6669 12.3239 19.6669 12.9097 19.0812L18.5665 13.4243C19.1523 12.8385 19.1523 11.8888 18.5665 11.303L9.60767 2.34414C9.30849 2.04496 8.89688 1.88605 8.47428 1.90656L3.07932 2.16845ZM0.654987 3.54547C0.717386 2.26007 1.74542 1.23203 3.03083 1.16963L8.42579 0.907739C9.13013 0.873548 9.81615 1.1384 10.3148 1.63703L19.2736 10.5959C20.2499 11.5722 20.2499 13.1551 19.2736 14.1314L13.6168 19.7883C12.6405 20.7646 11.0575 20.7646 10.0812 19.7883L1.12239 10.8294C0.623762 10.3308 0.358905 9.64477 0.393096 8.94044L0.654987 3.54547Z" fill="#0093ED"/>
<path fill-rule="evenodd" clip-rule="evenodd" d="M5.13112 5.64613C4.54534 6.23191 4.54534 7.18166 5.13112 7.76745C5.71691 8.35323 6.66666 8.35323 7.25244 7.76745C7.83823 7.18166 7.83823 6.23191 7.25244 5.64613C6.66666 5.06034 5.71691 5.06034 5.13112 5.64613ZM4.42402 8.47455C3.44771 7.49824 3.44771 5.91533 4.42402 4.93902C5.40033 3.96271 6.98324 3.96271 7.95955 4.93902C8.93586 5.91533 8.93586 7.49824 7.95955 8.47455C6.98324 9.45086 5.40033 9.45086 4.42402 8.47455Z" fill="#0093ED"/>
</svg>
