<svg width="16" height="22" viewBox="0 0 16 22" fill="none" xmlns="http://www.w3.org/2000/svg">
<path fill-rule="evenodd" clip-rule="evenodd" d="M1 22C0.723858 22 0.5 21.7761 0.5 21.5V16C0.5 13.5148 2.51471 11.5001 4.99998 11.5L11 11.5C13.4853 11.5 15.5 13.5147 15.5 16V21.5C15.5 21.7761 15.2761 22 15 22C14.7239 22 14.5 21.7761 14.5 21.5V16C14.5 14.067 12.933 12.5 11 12.5L4.99998 12.5C3.06699 12.5001 1.5 14.0671 1.5 16V21.5C1.5 21.7761 1.27614 22 1 22ZM13 5C13 7.76142 10.7614 10 8 10C5.23858 10 3 7.76142 3 5C3 2.23858 5.23858 0 8 0C10.7614 0 13 2.23858 13 5ZM8 9C10.2091 9 12 7.20914 12 5C12 2.79086 10.2091 1 8 1C5.79086 1 4 2.79086 4 5C4 7.20914 5.79086 9 8 9Z" fill="#0093ED"/>
</svg>
